<svg xmlns="http://www.w3.org/2000/svg" width="3281" height="322.847" viewBox="0 0 3281 322.847"><defs><style>.a{fill:#1a1a1f;}.b{fill:#26262b;}</style></defs><g transform="translate(1413.191 611)"><rect class="a" width="3281" height="79" transform="translate(-1413.191 -431)"/><path class="a" d="M1093.889,200.679H0V51.637a80.9,80.9,0,0,1,148.123-5.91A38.645,38.645,0,0,1,189.4,51.652a38.721,38.721,0,0,1,62.288-18.43,39.1,39.1,0,0,1,6.054,6.5,74.829,74.829,0,0,1,11.191-8.679,77.317,77.317,0,0,1,12.888-6.562,79.372,79.372,0,0,1,14.273-4.151,81.919,81.919,0,0,1,34.039.715A78.537,78.537,0,0,1,347.1,27.173a75.7,75.7,0,0,1,14.667,9.559,71.912,71.912,0,0,1,11.785,12.449,38.757,38.757,0,0,1,58.914,19.73,80.834,80.834,0,0,1,15.852-5.158,81.718,81.718,0,0,1,17.094-1.8,80.753,80.753,0,0,1,30.469,5.911,42.123,42.123,0,0,1,14.549-12.429A41.962,41.962,0,0,1,553.5,58.218,80.891,80.891,0,0,1,703.911,45.591a38.641,38.641,0,0,1,41.277,5.924,38.723,38.723,0,0,1,62.289-18.431,39.05,39.05,0,0,1,6.054,6.5,74.789,74.789,0,0,1,11.19-8.68,77.3,77.3,0,0,1,12.888-6.562,79.45,79.45,0,0,1,14.273-4.151,81.944,81.944,0,0,1,34.037.715,78.6,78.6,0,0,1,16.97,6.13A75.758,75.758,0,0,1,917.557,36.6a71.9,71.9,0,0,1,11.785,12.449,38.733,38.733,0,0,1,57.169,15.341A81.127,81.127,0,0,1,1048.1,73.5a41.994,41.994,0,0,1,45.792-22.016V200.678Z" transform="translate(-319.728 -611)"/><path class="a" d="M1093.889,200.679H0V51.637a80.9,80.9,0,0,1,148.123-5.91A38.645,38.645,0,0,1,189.4,51.652a38.721,38.721,0,0,1,62.288-18.43,39.1,39.1,0,0,1,6.054,6.5,74.829,74.829,0,0,1,11.191-8.679,77.317,77.317,0,0,1,12.888-6.562,79.372,79.372,0,0,1,14.273-4.151,81.919,81.919,0,0,1,34.039.715A78.537,78.537,0,0,1,347.1,27.173a75.7,75.7,0,0,1,14.667,9.559,71.912,71.912,0,0,1,11.785,12.449,38.757,38.757,0,0,1,58.914,19.73,80.834,80.834,0,0,1,15.852-5.158,81.718,81.718,0,0,1,17.094-1.8,80.753,80.753,0,0,1,30.469,5.911,42.123,42.123,0,0,1,14.549-12.429A41.962,41.962,0,0,1,553.5,58.218,80.891,80.891,0,0,1,703.911,45.591a38.641,38.641,0,0,1,41.277,5.924,38.723,38.723,0,0,1,62.289-18.431,39.05,39.05,0,0,1,6.054,6.5,74.789,74.789,0,0,1,11.19-8.68,77.3,77.3,0,0,1,12.888-6.562,79.45,79.45,0,0,1,14.273-4.151,81.944,81.944,0,0,1,34.037.715,78.6,78.6,0,0,1,16.97,6.13A75.758,75.758,0,0,1,917.557,36.6a71.9,71.9,0,0,1,11.785,12.449,38.733,38.733,0,0,1,57.169,15.341A81.127,81.127,0,0,1,1048.1,73.5a41.994,41.994,0,0,1,45.792-22.016V200.678Z" transform="translate(-1412.999 -611)"/><path class="a" d="M1093.889,200.679H0V51.637a80.9,80.9,0,0,1,148.123-5.91A38.645,38.645,0,0,1,189.4,51.652a38.721,38.721,0,0,1,62.288-18.43,39.1,39.1,0,0,1,6.054,6.5,74.829,74.829,0,0,1,11.191-8.679,77.317,77.317,0,0,1,12.888-6.562,79.372,79.372,0,0,1,14.273-4.151,81.919,81.919,0,0,1,34.039.715A78.537,78.537,0,0,1,347.1,27.173a75.7,75.7,0,0,1,14.667,9.559,71.912,71.912,0,0,1,11.785,12.449,38.757,38.757,0,0,1,58.914,19.73,80.834,80.834,0,0,1,15.852-5.158,81.718,81.718,0,0,1,17.094-1.8,80.753,80.753,0,0,1,30.469,5.911,42.123,42.123,0,0,1,14.549-12.429A41.962,41.962,0,0,1,553.5,58.218,80.891,80.891,0,0,1,703.911,45.591a38.641,38.641,0,0,1,41.277,5.924,38.723,38.723,0,0,1,62.289-18.431,39.05,39.05,0,0,1,6.054,6.5,74.789,74.789,0,0,1,11.19-8.68,77.3,77.3,0,0,1,12.888-6.562,79.45,79.45,0,0,1,14.273-4.151,81.944,81.944,0,0,1,34.037.715,78.6,78.6,0,0,1,16.97,6.13A75.758,75.758,0,0,1,917.557,36.6a71.9,71.9,0,0,1,11.785,12.449,38.733,38.733,0,0,1,57.169,15.341A81.127,81.127,0,0,1,1048.1,73.5a41.994,41.994,0,0,1,45.792-22.016V200.678Z" transform="translate(773.544 -611)"/><path class="b" d="M1093.889,133.095H0V48.183a45.037,45.037,0,0,1,8.454-.8,43.931,43.931,0,0,1,22.175,5.937A40.5,40.5,0,0,1,45.792,68.787a83.781,83.781,0,0,1,19.732-7.98,87.212,87.212,0,0,1,41.854-.553,37.214,37.214,0,0,1,14.04-15.039,40.948,40.948,0,0,1,43.13.682,69.445,69.445,0,0,1,11.785-11.651A76.478,76.478,0,0,1,191,25.3a82.143,82.143,0,0,1,16.971-5.737,87.418,87.418,0,0,1,34.037-.668,83.574,83.574,0,0,1,14.273,3.885,79.41,79.41,0,0,1,12.888,6.141,74.24,74.24,0,0,1,11.19,8.122,37.724,37.724,0,0,1,6.054-6.082,39.185,39.185,0,0,1,7.395-4.654,40.207,40.207,0,0,1,8.47-2.975,41.531,41.531,0,0,1,21.822.9,39.5,39.5,0,0,1,10.828,5.4,37.627,37.627,0,0,1,8.43,8.209A35.165,35.165,0,0,1,348.7,48.21a39.285,39.285,0,0,1,11.551-6.444,41.215,41.215,0,0,1,29.726.9,75.634,75.634,0,0,1,12.4-17.321,80.107,80.107,0,0,1,16.9-13.482,83.167,83.167,0,0,1,20.447-8.747,86.594,86.594,0,0,1,49.3.971,82.414,82.414,0,0,1,22.664,11.35,78.379,78.379,0,0,1,17.6,17.253,73.287,73.287,0,0,1,11.089,21.795,43.692,43.692,0,0,1,23.856-6.967,44.782,44.782,0,0,1,10.047,1.135,43.534,43.534,0,0,1,9.169,3.223,42.321,42.321,0,0,1,8,5.043,40.641,40.641,0,0,1,6.547,6.59,85.61,85.61,0,0,1,30.469-5.531,87.1,87.1,0,0,1,17.094,1.688,84.787,84.787,0,0,1,15.851,4.827,35.384,35.384,0,0,1,5.48-10.009,37.762,37.762,0,0,1,8.39-7.9A39.557,39.557,0,0,1,685.95,41.4a41.086,41.086,0,0,1,12.284-1.862,40.454,40.454,0,0,1,22.1,6.487,69.372,69.372,0,0,1,11.785-11.65,76.459,76.459,0,0,1,14.667-8.945,82.179,82.179,0,0,1,16.97-5.736,87.418,87.418,0,0,1,34.037-.668,83.581,83.581,0,0,1,14.273,3.885,79.39,79.39,0,0,1,12.888,6.14,74.3,74.3,0,0,1,11.19,8.122A37.671,37.671,0,0,1,842.2,31.09a39.149,39.149,0,0,1,7.395-4.653,40.16,40.16,0,0,1,8.469-2.975,41.53,41.53,0,0,1,21.821.9,39.539,39.539,0,0,1,10.829,5.4,37.636,37.636,0,0,1,8.429,8.209,35.168,35.168,0,0,1,5.344,10.374,39.293,39.293,0,0,1,11.551-6.444,41.218,41.218,0,0,1,29.726.9,75.657,75.657,0,0,1,12.4-17.321,80.083,80.083,0,0,1,16.9-13.482,83.192,83.192,0,0,1,20.447-8.748,86.654,86.654,0,0,1,47.619.449,82.816,82.816,0,0,1,21.537,9.956,79.3,79.3,0,0,1,17.311,15.246,74.469,74.469,0,0,1,11.909,19.431v84.769Z" transform="translate(-319.728 -421.248)"/><path class="b" d="M1093.889,133.095H0V48.183a45.037,45.037,0,0,1,8.454-.8,43.931,43.931,0,0,1,22.175,5.937A40.5,40.5,0,0,1,45.792,68.787a83.781,83.781,0,0,1,19.732-7.98,87.212,87.212,0,0,1,41.854-.553,37.214,37.214,0,0,1,14.04-15.039,40.948,40.948,0,0,1,43.13.682,69.445,69.445,0,0,1,11.785-11.651A76.478,76.478,0,0,1,191,25.3a82.143,82.143,0,0,1,16.971-5.737,87.418,87.418,0,0,1,34.037-.668,83.574,83.574,0,0,1,14.273,3.885,79.41,79.41,0,0,1,12.888,6.141,74.24,74.24,0,0,1,11.19,8.122,37.724,37.724,0,0,1,6.054-6.082,39.185,39.185,0,0,1,7.395-4.654,40.207,40.207,0,0,1,8.47-2.975,41.531,41.531,0,0,1,21.822.9,39.5,39.5,0,0,1,10.828,5.4,37.627,37.627,0,0,1,8.43,8.209A35.165,35.165,0,0,1,348.7,48.21a39.285,39.285,0,0,1,11.551-6.444,41.215,41.215,0,0,1,29.726.9,75.634,75.634,0,0,1,12.4-17.321,80.107,80.107,0,0,1,16.9-13.482,83.167,83.167,0,0,1,20.447-8.747,86.594,86.594,0,0,1,49.3.971,82.414,82.414,0,0,1,22.664,11.35,78.379,78.379,0,0,1,17.6,17.253,73.287,73.287,0,0,1,11.089,21.795,43.692,43.692,0,0,1,23.856-6.967,44.782,44.782,0,0,1,10.047,1.135,43.534,43.534,0,0,1,9.169,3.223,42.321,42.321,0,0,1,8,5.043,40.641,40.641,0,0,1,6.547,6.59,85.61,85.61,0,0,1,30.469-5.531,87.1,87.1,0,0,1,17.094,1.688,84.787,84.787,0,0,1,15.851,4.827,35.384,35.384,0,0,1,5.48-10.009,37.762,37.762,0,0,1,8.39-7.9A39.557,39.557,0,0,1,685.95,41.4a41.086,41.086,0,0,1,12.284-1.862,40.454,40.454,0,0,1,22.1,6.487,69.372,69.372,0,0,1,11.785-11.65,76.459,76.459,0,0,1,14.667-8.945,82.179,82.179,0,0,1,16.97-5.736,87.418,87.418,0,0,1,34.037-.668,83.581,83.581,0,0,1,14.273,3.885,79.39,79.39,0,0,1,12.888,6.14,74.3,74.3,0,0,1,11.19,8.122A37.671,37.671,0,0,1,842.2,31.09a39.149,39.149,0,0,1,7.395-4.653,40.16,40.16,0,0,1,8.469-2.975,41.53,41.53,0,0,1,21.821.9,39.539,39.539,0,0,1,10.829,5.4,37.636,37.636,0,0,1,8.429,8.209,35.168,35.168,0,0,1,5.344,10.374,39.293,39.293,0,0,1,11.551-6.444,41.218,41.218,0,0,1,29.726.9,75.657,75.657,0,0,1,12.4-17.321,80.083,80.083,0,0,1,16.9-13.482,83.192,83.192,0,0,1,20.447-8.748,86.654,86.654,0,0,1,47.619.449,82.816,82.816,0,0,1,21.537,9.956,79.3,79.3,0,0,1,17.311,15.246,74.469,74.469,0,0,1,11.909,19.431v84.769Z" transform="translate(-1413 -421.248)"/><path class="b" d="M1093.889,133.095H0V48.183a45.037,45.037,0,0,1,8.454-.8,43.931,43.931,0,0,1,22.175,5.937A40.5,40.5,0,0,1,45.792,68.787a83.781,83.781,0,0,1,19.732-7.98,87.212,87.212,0,0,1,41.854-.553,37.214,37.214,0,0,1,14.04-15.039,40.948,40.948,0,0,1,43.13.682,69.445,69.445,0,0,1,11.785-11.651A76.478,76.478,0,0,1,191,25.3a82.143,82.143,0,0,1,16.971-5.737,87.418,87.418,0,0,1,34.037-.668,83.574,83.574,0,0,1,14.273,3.885,79.41,79.41,0,0,1,12.888,6.141,74.24,74.24,0,0,1,11.19,8.122,37.724,37.724,0,0,1,6.054-6.082,39.185,39.185,0,0,1,7.395-4.654,40.207,40.207,0,0,1,8.47-2.975,41.531,41.531,0,0,1,21.822.9,39.5,39.5,0,0,1,10.828,5.4,37.627,37.627,0,0,1,8.43,8.209A35.165,35.165,0,0,1,348.7,48.21a39.285,39.285,0,0,1,11.551-6.444,41.215,41.215,0,0,1,29.726.9,75.634,75.634,0,0,1,12.4-17.321,80.107,80.107,0,0,1,16.9-13.482,83.167,83.167,0,0,1,20.447-8.747,86.594,86.594,0,0,1,49.3.971,82.414,82.414,0,0,1,22.664,11.35,78.379,78.379,0,0,1,17.6,17.253,73.287,73.287,0,0,1,11.089,21.795,43.692,43.692,0,0,1,23.856-6.967,44.782,44.782,0,0,1,10.047,1.135,43.534,43.534,0,0,1,9.169,3.223,42.321,42.321,0,0,1,8,5.043,40.641,40.641,0,0,1,6.547,6.59,85.61,85.61,0,0,1,30.469-5.531,87.1,87.1,0,0,1,17.094,1.688,84.787,84.787,0,0,1,15.851,4.827,35.384,35.384,0,0,1,5.48-10.009,37.762,37.762,0,0,1,8.39-7.9A39.557,39.557,0,0,1,685.95,41.4a41.086,41.086,0,0,1,12.284-1.862,40.454,40.454,0,0,1,22.1,6.487,69.372,69.372,0,0,1,11.785-11.65,76.459,76.459,0,0,1,14.667-8.945,82.179,82.179,0,0,1,16.97-5.736,87.418,87.418,0,0,1,34.037-.668,83.581,83.581,0,0,1,14.273,3.885,79.39,79.39,0,0,1,12.888,6.14,74.3,74.3,0,0,1,11.19,8.122A37.671,37.671,0,0,1,842.2,31.09a39.149,39.149,0,0,1,7.395-4.653,40.16,40.16,0,0,1,8.469-2.975,41.53,41.53,0,0,1,21.821.9,39.539,39.539,0,0,1,10.829,5.4,37.636,37.636,0,0,1,8.429,8.209,35.168,35.168,0,0,1,5.344,10.374,39.293,39.293,0,0,1,11.551-6.444,41.218,41.218,0,0,1,29.726.9,75.657,75.657,0,0,1,12.4-17.321,80.083,80.083,0,0,1,16.9-13.482,83.192,83.192,0,0,1,20.447-8.748,86.654,86.654,0,0,1,47.619.449,82.816,82.816,0,0,1,21.537,9.956,79.3,79.3,0,0,1,17.311,15.246,74.469,74.469,0,0,1,11.909,19.431v84.769Z" transform="translate(773.543 -421.248)"/></g></svg>