<svg xmlns="http://www.w3.org/2000/svg" width="4042.313" height="309.412" viewBox="0 0 4042.313 309.412"><defs><style>.a{fill:#26262b;}.b{fill:#1a1a1f;}</style></defs><g transform="translate(1157.347 -1676.604)"><g transform="translate(486.325 1676.605)"><path class="a" d="M147.14,749.372l28.954-94.547,29.45-16.257,28.589-70.837H251.1s9.726,32.576,13.021,56.557-3.467,36.977,1.345,51.317,17.753,17.052,21.976,33.9,2.749,39.867,2.749,39.867Z" transform="translate(-145.626 -567.73)"/><path class="b" d="M201.228,630.949c-15.8,24.034-29.272,18.048-38.028,38.11s-19.087,81.615-19.087,81.615h41.892c-1.245-7.611-8.862-48.126,1.5-73.621s13.534-12.492,25.086-38.605S236.24,567.73,236.24,567.73h-4.614S217.026,606.915,201.228,630.949Z" transform="translate(-144.113 -567.73)"/></g><g transform="translate(594.245 1716.834)"><path class="a" d="M369.574,845.334l35.215-95.344h29.46s1.417,46.976,9.074,70.046,13.529,14.472,21.545,25.3S485.6,901.991,485.6,901.991L379.349,887.245,362.47,864.9Z" transform="translate(-329.187 -749.613)"/><path class="b" d="M376.88,894.427h0l56.907,11.492s-44.661-13.294-56.907-52.492,7.925-104.3,7.925-104.3H373.037l-38.781,104.3L303.18,931.522l41.859-32.478Z" transform="translate(-303.18 -749.128)"/></g><g transform="translate(189.774 1699.714)"><path class="b" d="M1401.376,258.256c-53.453,0-97.344,52.816-137.742,52.283-38.613-.51-43.5,5.885-88.781,5.885-92.785,0-77.252,2.233-112.286,12.221-23.715,6.759-52.015,4.412-71.6-5.958h0c-5.084-2.686-22.165-8.06-43.923-8.06s-34.819,5.442-65.786,22.391c-26.593,14.557-61.57,22.648-97.91,22.648H554.409c-21.489,0-42.288-4.435-58.769-12.526h0c-30.929-15.167-69.9-23.472-110.17-23.472H357.285c-22.41,0-43.17-6.918-54.682-18.225l-59.4-33.407c-17.575-17.254-77.368-16.044-90.041-22.126s-41.994-41.026-78.2-41.026H53.3v286.2H1401.376Z" transform="translate(-53.305 -208.885)"/></g><path class="a" d="M1348.056,0H0V101.323l.412,0c9.042.044,56.615.265,105.39.265,11.482,0,25.987-1.138,45.649-3.58,17.369-2.158,36.022-4.988,55.77-7.985,41.243-6.259,83.89-12.731,114.439-12.731,2.67,0,5.245.05,7.655.15,27.576,1.139,42.283,6.343,56.507,11.376A188.329,188.329,0,0,0,410.8,96.295a145.5,145.5,0,0,0,16.052,2.441c6.332.621,13.015.923,20.432.923a295.58,295.58,0,0,0,37.345-2.148c10.168-1.289,18.78-3.038,27.108-4.73h.005c7.833-1.591,15.933-3.237,25.342-4.5a284.93,284.93,0,0,1,33.945-2.39c1.794-.027,3.59-.041,5.336-.041,25.03,0,41.69,2.759,57.8,5.426l.487.081c7.956,1.318,16.178,2.68,25.167,3.68a274.8,274.8,0,0,0,30.7,1.666c2.58,0,5.251-.033,7.94-.1a191.7,191.7,0,0,0,28.917-2.773c8.429-1.465,15.978-3.343,23.969-5.33a348.3,348.3,0,0,1,36.034-7.491c16.371-2.4,34.608-3.564,55.753-3.564,28.941,0,43.614-.454,53.324-.755,4.952-.153,8.53-.264,12.142-.264,9.744,0,18.739.778,52.981,4.1,12.633,1.227,24.8,3.018,37.2,5.476,11.049,2.191,21.248,4.7,31.112,7.118h.005c14.686,3.607,29.872,7.336,48.106,10.085,9.813,1.479,19.707,2.565,30.246,3.32,11.827.847,24.159,1.259,37.7,1.259h.086c28.1,0,59.816-.005,94.262-.005,49,0,90.934,0,106.688.005h1.071V0Z" transform="translate(1537.831 1986.017) rotate(180)"/><g transform="translate(-1157.347 1699.714)"><path class="b" d="M53.3,258.256c53.453,0,97.344,52.816,137.742,52.283,38.613-.51,43.5,5.885,88.781,5.885,92.785,0,77.252,2.233,112.286,12.221,23.715,6.759,52.015,4.412,71.6-5.958h0c5.085-2.686,22.166-8.06,43.923-8.06s34.819,5.442,65.786,22.391c26.593,14.557,61.57,22.648,97.91,22.648H900.272c21.489,0,42.288-4.435,58.769-12.526h0c30.929-15.167,69.9-23.472,110.17-23.472H1097.4c22.41,0,43.17-6.918,54.682-18.225l59.4-33.407c17.575-17.254,77.368-16.044,90.041-22.126s41.994-41.026,78.2-41.026h21.66v286.2H53.3Z" transform="translate(-53.305 -208.885)"/></g><path class="a" d="M1348.057,107.789H0V6.466l.412,0C9.453,6.419,57.027,6.2,105.8,6.2c11.482,0,25.987,1.138,45.649,3.58,17.369,2.158,36.022,4.988,55.77,7.985C248.463,24.023,291.11,30.5,321.659,30.5c2.67,0,5.245-.05,7.655-.15C356.89,29.207,371.6,24,385.822,18.969A188.324,188.324,0,0,1,410.8,11.494a145.494,145.494,0,0,1,16.052-2.441c6.332-.621,13.015-.923,20.433-.923a295.581,295.581,0,0,1,37.345,2.148c10.168,1.289,18.78,3.038,27.108,4.73h.005c7.833,1.591,15.933,3.237,25.342,4.5A284.927,284.927,0,0,0,571.03,21.9c1.794.027,3.59.041,5.336.041,25.03,0,41.69-2.759,57.8-5.426l.487-.081c7.956-1.318,16.178-2.68,25.168-3.68a274.8,274.8,0,0,1,30.7-1.666c2.58,0,5.251.033,7.94.1a191.7,191.7,0,0,1,28.917,2.773c8.429,1.465,15.978,3.343,23.969,5.33a348.289,348.289,0,0,0,36.034,7.49c16.371,2.4,34.608,3.564,55.753,3.564,28.941,0,43.614.454,53.324.755,4.952.153,8.53.264,12.143.264,9.744,0,18.74-.778,52.981-4.1,12.633-1.227,24.8-3.018,37.2-5.476,11.049-2.191,21.248-4.7,31.112-7.118h.005c14.686-3.607,29.872-7.336,48.106-10.085,9.813-1.479,19.707-2.565,30.246-3.32C1120.075.412,1132.407,0,1145.949,0h.086c28.1,0,59.816.005,94.263.005,49,0,90.934,0,106.688-.005h1.071V107.788Z" transform="translate(-1157.333 1878.228)"/><g transform="translate(1536.894 1699.714)"><path class="b" d="M53.3,258.256c53.453,0,97.344,52.816,137.742,52.283,38.613-.51,43.5,5.885,88.781,5.885,92.785,0,77.252,2.233,112.286,12.221,23.715,6.759,52.015,4.412,71.6-5.958h0c5.085-2.686,22.166-8.06,43.923-8.06s34.819,5.442,65.786,22.391c26.593,14.557,61.57,22.648,97.91,22.648H900.272c21.489,0,42.288-4.435,58.769-12.526h0c30.929-15.167,69.9-23.472,110.17-23.472H1097.4c22.41,0,43.17-6.918,54.682-18.225l59.4-33.407c17.575-17.254,77.368-16.044,90.041-22.126s41.994-41.026,78.2-41.026h21.66v286.2H53.3Z" transform="translate(-53.305 -208.885)"/></g><path class="a" d="M1348.057,107.789H0V6.466l.412,0C9.453,6.419,57.027,6.2,105.8,6.2c11.482,0,25.987,1.138,45.649,3.58,17.369,2.158,36.022,4.988,55.77,7.985C248.463,24.023,291.11,30.5,321.659,30.5c2.67,0,5.245-.05,7.655-.15C356.89,29.207,371.6,24,385.822,18.969A188.324,188.324,0,0,1,410.8,11.494a145.494,145.494,0,0,1,16.052-2.441c6.332-.621,13.015-.923,20.433-.923a295.581,295.581,0,0,1,37.345,2.148c10.168,1.289,18.78,3.038,27.108,4.73h.005c7.833,1.591,15.933,3.237,25.342,4.5A284.927,284.927,0,0,0,571.03,21.9c1.794.027,3.59.041,5.336.041,25.03,0,41.69-2.759,57.8-5.426l.487-.081c7.956-1.318,16.178-2.68,25.168-3.68a274.8,274.8,0,0,1,30.7-1.666c2.58,0,5.251.033,7.94.1a191.7,191.7,0,0,1,28.917,2.773c8.429,1.465,15.978,3.343,23.969,5.33a348.289,348.289,0,0,0,36.034,7.49c16.371,2.4,34.608,3.564,55.753,3.564,28.941,0,43.614.454,53.324.755,4.952.153,8.53.264,12.143.264,9.744,0,18.74-.778,52.981-4.1,12.633-1.227,24.8-3.018,37.2-5.476,11.049-2.191,21.248-4.7,31.112-7.118h.005c14.686-3.607,29.872-7.336,48.106-10.085,9.813-1.479,19.707-2.565,30.246-3.32C1120.075.412,1132.407,0,1145.949,0h.086c28.1,0,59.816.005,94.263.005,49,0,90.934,0,106.688-.005h1.071V107.788Z" transform="translate(1536.909 1878.228)"/></g></svg>